Coordinates
version=1
nRows=16
nColumns=28
inDegrees=yes

Units are S.I. units (second, meters, Newtons, ...)
Angles are in degrees.

endheader
time	pelvis_tilt	pelvis_list	pelvis_rotation	pelvis_tx	pelvis_ty	pelvis_tz	hip_flexion_r	hip_adduction_r	hip_rotation_r	knee_angle_r	ankle_angle_r	subtalar_angle_r	mtp_angle_r	hip_flexion_l	hip_adduction_l	hip_rotation_l	knee_angle_l	socket_flexion	socket_adduction	socket_rotation	socket_tx	socket_ty	socket_tz	foot_flex	lumbar_extension	lumbar_bending	lumbar_rotation
      0.97916667	      6.35978250	      1.72135656	     -2.33682654	      0.39039729	      1.02539567	      0.26628593	      2.33154943	      3.70419520	      2.29730595	    -22.20899891	     10.36716129	    -12.97085814	     26.54678264	     10.95815031	      0.65587895	     -1.39239981	    -76.41186733	    -11.09418131	      0.00000000	      0.00000000	      0.00000000	      0.05618520	      0.00000000	      4.10402767	    -16.03273365	     -2.09369683	      7.22194437
      0.98333333	      6.38729896	      1.72588773	     -2.59875738	      0.39488521	      1.02604245	      0.26659611	      2.02054533	      3.64289227	      2.24800840	    -22.20833769	     10.36975579	    -12.94373006	     26.55162940	     11.44360745	      0.62734617	     -1.29283234	    -76.13439571	    -11.09925099	      0.00000000	      0.00000000	      0.00000000	      0.05550025	      0.00000000	      4.13464000	    -16.11271106	     -2.14127791	      7.24799274
      0.98750000	      6.45729995	      1.99620598	     -2.97461581	      0.39987625	      1.02700818	      0.26712264	      1.42746481	      3.27377811	      2.45399938	    -21.73186310	     10.40771652	    -12.03389559	     26.99097678	     11.84389357	      0.85013770	     -1.40091577	    -75.73463353	    -11.08861742	      0.00000000	      0.00000000	      0.00000000	      0.05549449	      0.00000000	      4.11268228	    -16.11097649	     -2.64807203	      8.20217173
      0.99166667	      6.45124083	      2.09531444	     -3.16555075	      0.40455517	      1.02770750	      0.26738911	      0.99269119	      3.11439417	      2.48687749	    -21.41552687	     10.39980207	    -11.88858401	     27.03934165	     12.38846469	      0.92945314	     -1.26612062	    -75.42146098	    -11.09347398	      0.00000000	      0.00000000	      0.00000000	      0.05529609	      0.00000000	      4.13014250	    -16.09588982	     -2.81703371	      8.25602219
      0.99583333	      6.48522447	      2.09325115	     -3.41683863	      0.40886207	      1.02829603	      0.26767041	      0.68489225	      3.04841922	      2.43497054	    -21.40501709	     10.40058918	    -11.86507322	     27.04443508	     12.89766966	      0.89483209	     -1.15624106	    -75.11114864	    -11.10866077	      0.00000000	      0.00000000	      0.00000000	      0.05489867	      0.00000000	      4.15421740	    -16.18046124	     -2.85022779	      8.27091857
      1.00000000	      6.41604358	      2.26044139	     -3.55674008	      0.41382349	      1.02901438	      0.26786363	      0.16509220	      2.82180048	      2.57053146	    -20.80011305	     10.33501755	    -11.56653931	     27.10446680	     13.43280689	      1.08178366	     -0.95069217	    -74.62046691	    -11.09281828	      0.00000000	      0.00000000	      0.00000000	      0.05458862	      0.00000000	      4.14148900	    -16.04667754	     -3.11362781	      8.46507157
      1.00416667	      6.38694466	      2.33033071	     -3.75959467	      0.41850279	      1.02960767	      0.26808407	     -0.23414266	      2.68195322	      2.60843863	    -20.49335216	     10.26243076	    -11.32327546	     27.16891956	     13.88788121	      1.15793793	     -0.77709310	    -74.07148643	    -11.08400729	      0.00000000	      0.00000000	      0.00000000	      0.05383793	      0.00000000	      4.12853048	    -16.00578068	     -3.24920221	      8.65782485
      1.00833333	      6.36918460	      2.37314269	     -3.99698825	      0.42315319	      1.03015898	      0.26835314	     -0.62481989	      2.56058142	      2.62029656	    -20.21751874	     10.19441555	    -11.02164815	     27.27777225	     14.29362162	      1.20161973	     -0.61431630	    -73.45805918	    -11.06722773	      0.00000000	      0.00000000	      0.00000000	      0.05291607	      0.00000000	      4.09484464	    -15.97208539	     -3.37168406	      8.91005311
      1.01250000	      6.40062194	      2.35041880	     -4.23559675	      0.42718766	      1.03060928	      0.26858813	     -0.90076454	      2.50862627	      2.57060379	    -20.22918515	     10.19723954	    -10.99696094	     27.28646664	     14.81526088	      1.15274530	     -0.48699851	    -73.07477930	    -11.09287826	      0.00000000	      0.00000000	      0.00000000	      0.05270995	      0.00000000	      4.12562242	    -16.09783622	     -3.39870249	      8.93066255
      1.01666667	      6.29001865	      2.41761724	     -4.38334053	      0.43218265	      1.03108097	      0.26871935	     -1.33458370	      2.37507821	      2.65312147	    -19.70377227	     10.12848398	    -10.61629632	     27.40128564	     15.15466346	      1.27151096	     -0.18002555	    -72.16004412	    -11.03589595	      0.00000000	      0.00000000	      0.00000000	      0.05105267	      0.00000000	      4.06550828	    -15.91178935	     -3.52878017	      9.22122924
      1.02083333	      6.24932226	      2.42044948	     -4.59525588	      0.43677670	      1.03151121	      0.26890331	     -1.69367497	      2.28955390	      2.65601407	    -19.43660898	     10.06661471	    -10.30713813	     27.52370805	     15.49281295	      1.29412843	      0.05275542	    -71.34110872	    -10.99852361	      0.00000000	      0.00000000	      0.00000000	      0.04970935	      0.00000000	      4.02613025	    -15.86642544	     -3.58597478	      9.46262671
      1.02500000	      6.26804456	      2.39029295	     -4.81295772	      0.44060001	      1.03184785	      0.26916497	     -1.94647777	      2.24969158	      2.61702482	    -19.43350658	     10.06618659	    -10.26648481	     27.53947229	     16.02108248	      1.23776488	      0.20820899	    -70.87710267	    -11.01754171	      0.00000000	      0.00000000	      0.00000000	      0.04955102	      0.00000000	      4.05310721	    -16.01812145	     -3.61555495	      9.49236008
      1.02916667	      6.10735027	      2.37998858	     -4.93270025	      0.44566780	      1.03211677	      0.26919900	     -2.31000617	      2.19608104	      2.66662873	    -18.97077654	      9.99928767	     -9.90512831	     27.66079726	     16.25332990	      1.29380788	      0.60914522	    -69.65986817	    -10.90189245	      0.00000000	      0.00000000	      0.00000000	      0.04706856	      0.00000000	      3.96179372	    -15.76519968	     -3.62879522	      9.75376351
      1.03333333	      6.04662385	      2.32846749	     -5.10109073	      0.44991972	      1.03238684	      0.26934230	     -2.59523063	      2.18774818	      2.70377151	    -18.79047756	      9.94271177	     -9.66064493	     27.75434894	     16.60887313	      1.27644796	      0.94845057	    -68.75790120	    -10.83690463	      0.00000000	      0.00000000	      0.00000000	      0.04571632	      0.00000000	      3.91626184	    -15.75216409	     -3.62182899	      9.92625509
      1.03750000	      5.94192006	      2.26335169	     -5.25288109	      0.45447107	      1.03257753	      0.26944983	     -2.90120675	      2.18365009	      2.67836883	    -18.49576540	      9.89216389	     -9.38601203	     27.86977245	     16.89117144	      1.22515620	      1.25961950	    -67.65002971	    -10.71354591	      0.00000000	      0.00000000	      0.00000000	      0.04377494	      0.00000000	      3.84421697	    -15.65058142	     -3.58696583	     10.12667692
      1.04166667	      5.87311139	      2.20098496	     -5.44876192	      0.45899343	      1.03277966	      0.26968127	     -3.22071994	      2.16612543	      2.64792706	    -18.24062484	      9.80894132	     -9.04759291	     28.05319482	     17.06791618	      1.15807654	      1.53365140	    -66.39138278	    -10.51902471	      0.00000000	      0.00000000	      0.00000000	      0.04155913	      0.00000000	      3.78400949	    -15.58986507	     -3.57850004	     10.35814491
